# xmcd
#
# Track frame offsets: 
#        150
#        12500
#        26560
#        40283
#        56460
#        83971
#
# Disc length: 1374 seconds
#
# Revision: 0
# Processed by: cddbd v1.5.2PL0 Copyright (c) Steve Scherf et al.
# Submitted via: ExactAudioCopy v0.95b4
#
DISCID=44055c06
DTITLE=Robert Plant  - 9 Lives (Box Set 3-9) The Honeydrippers - Volum
DTITLE=e 1 (Remaster)
DYEAR=1900
DGENRE=
TTITLE0=I Get A Thrill
TTITLE1=Sea Of Love
TTITLE2=I Got A Woman
TTITLE3=Young Boy Blues
TTITLE4=Rockin' At Midnight
TTITLE5=Rockin' At Midnight (Live)
EXTD=
EXTT0=
EXTT1=
EXTT2=
EXTT3=
EXTT4=
EXTT5=
PLAYORDER=
